<svg width="93" height="13" viewBox="0 0 93 13" fill="none" xmlns="http://www.w3.org/2000/svg">
<path d="M0.629883 9.99911H7.27988V8.19311H2.92588V6.06511H6.20188V4.66511H2.92588V2.59311H7.15388V0.787109H0.629883V9.99911Z" fill="black"/>
<path d="M10.546 9.99911H13.08L15.936 3.08311H13.752L11.932 8.05311H11.904L10.126 3.08311H7.64804L10.546 9.99911Z" fill="black"/>
<path d="M23.1709 6.34511C23.1709 4.07711 21.8129 2.97111 19.8809 2.97111C17.5429 2.97111 16.1149 4.32911 16.1149 6.61111C16.1149 8.80911 17.5429 10.1111 19.8389 10.1111C21.8129 10.1111 23.1289 9.18711 23.1709 7.60511H21.2949C21.2389 8.27711 20.7069 8.57111 19.8809 8.57111C18.9289 8.57111 18.3549 8.08111 18.2569 6.94711H23.1709V6.34511ZM21.2949 5.81311H18.3129C18.4809 4.90311 18.9849 4.51111 19.8809 4.51111C20.7629 4.51111 21.2949 4.91711 21.2949 5.70111V5.81311Z" fill="black"/>
<path d="M24.1022 9.99911H26.2302V7.01711C26.2302 5.47711 26.8602 4.73511 27.7702 4.73511C28.4422 4.73511 28.8482 5.14111 28.8482 6.14911C28.8482 6.35911 28.8342 6.70911 28.8062 7.04511H30.7382C30.7662 6.68111 30.8082 6.06511 30.8082 5.67311C30.8082 3.88111 29.9822 2.97111 28.5682 2.97111C27.2102 2.97111 26.4682 3.74111 26.1742 5.05711H26.1462L26.2302 3.08311H24.1022V9.99911Z" fill="black"/>
<path d="M33.4896 12.9391C34.9176 12.9391 35.7716 12.1551 36.4716 10.1671L38.9776 3.08311H36.9336L35.3236 7.84311H35.2956L33.5176 3.08311H31.0816L33.9516 9.99911H34.4136C34.0636 10.9511 33.7416 11.2871 33.0416 11.2871C32.6916 11.2871 32.3696 11.2311 32.1596 11.1751V12.7571C32.3416 12.8271 32.7896 12.9391 33.4896 12.9391Z" fill="black"/>
<path d="M46.7428 9.99911H49.4168L45.8608 0.787109H43.0048L39.4488 9.99911H41.8008L42.4308 8.12311H46.1128L46.7428 9.99911ZM42.9068 6.69511L44.2508 2.66311H44.2788L45.6368 6.69511H42.9068Z" fill="black"/>
<path d="M50.1881 9.99911H52.3161V6.70911C52.3161 5.39311 52.9881 4.73511 54.1081 4.73511C55.0461 4.73511 55.6061 5.16911 55.6061 6.14911V9.99911H57.7341V5.67311C57.7341 3.88111 56.6561 2.97111 54.9901 2.97111C53.4221 2.97111 52.6101 3.60111 52.2601 4.91711H52.2321L52.3161 3.08311H50.1881V9.99911Z" fill="black"/>
<path d="M62.0651 10.1111C64.4311 10.1111 65.6771 9.25711 65.6771 7.80111C65.6771 7.19911 65.3551 6.68111 64.9071 6.42911C64.3891 6.13511 63.7871 6.05111 62.9331 5.96711C62.1911 5.89711 61.5751 5.84111 61.2251 5.75711C60.8331 5.65911 60.7211 5.43511 60.7211 5.14111C60.7211 4.66511 61.1411 4.34311 62.0931 4.34311C63.1431 4.34311 63.4791 4.72111 63.4931 5.44911H65.3691C65.3691 3.83911 64.3331 2.97111 62.0651 2.97111C60.1471 2.97111 58.6071 3.79711 58.6071 5.29511C58.6071 5.86911 58.8731 6.37311 59.2651 6.65311C59.6851 6.94711 60.4551 7.10111 61.4491 7.18511C62.1351 7.24111 62.6951 7.29711 63.0591 7.38111C63.4231 7.46511 63.5491 7.66111 63.5491 7.91311C63.5491 8.41711 63.1571 8.73911 62.0511 8.73911C60.8331 8.73911 60.5111 8.31911 60.5111 7.67511H58.6071C58.6071 9.07511 59.6291 10.1111 62.0651 10.1111Z" fill="black"/>
<path d="M68.0136 9.99911H70.5336L71.7376 5.44911H71.7796L72.9136 9.99911H75.5316L77.4636 3.08311H75.4756L74.2576 7.94111H74.2436L72.9556 3.08311H70.8416L69.5116 7.94111H69.4836L68.3216 3.08311H66.0816L68.0136 9.99911Z" fill="black"/>
<path d="M84.9131 6.34511C84.9131 4.07711 83.5551 2.97111 81.6231 2.97111C79.2851 2.97111 77.8571 4.32911 77.8571 6.61111C77.8571 8.80911 79.2851 10.1111 81.5811 10.1111C83.5551 10.1111 84.8711 9.18711 84.9131 7.60511H83.0371C82.9811 8.27711 82.4491 8.57111 81.6231 8.57111C80.6711 8.57111 80.0971 8.08111 79.9991 6.94711H84.9131V6.34511ZM83.0371 5.81311H80.0551C80.2231 4.90311 80.7271 4.51111 81.6231 4.51111C82.5051 4.51111 83.0371 4.91711 83.0371 5.70111V5.81311Z" fill="black"/>
<path d="M85.8444 9.99911H87.9724V7.01711C87.9724 5.47711 88.6024 4.73511 89.5124 4.73511C90.1844 4.73511 90.5904 5.14111 90.5904 6.14911C90.5904 6.35911 90.5764 6.70911 90.5484 7.04511H92.4804C92.5084 6.68111 92.5504 6.06511 92.5504 5.67311C92.5504 3.88111 91.7244 2.97111 90.3104 2.97111C88.9524 2.97111 88.2104 3.74111 87.9164 5.05711H87.8884L87.9724 3.08311H85.8444V9.99911Z" fill="black"/>
</svg>
